<svg width="3648" height="3188" viewBox="0 0 3648 3188" fill="none" xmlns="http://www.w3.org/2000/svg">
<rect x="431" y="73" width="3080" height="3115" fill="white"/>
<path d="M3337.96 2900.72L2787.31 2516.82L2194.52 2310.11L1601.73 1982.59L845.987 2146.35L1562.39 2589.31L1089 2899.38L845.987 2146.35L180.149 1861.78L1020.17 1563.79L646.516 1153.05L1089 751.707L539.757 369.154M2894.07 1153.05L3647 1238.69L2894.07 1153.05Z" stroke="url(#paint0_linear_0_1)" stroke-opacity="0.4" stroke-width="1.835"/>
<path d="M1773.1 2967.83L1562.39 2589.31M646.516 1153.05L1399.45 1238.96L1829.29 1563.79L2427.7 1861.78L1600.32 1981.25L1018.77 1562.45L646.516 1153.05Z" stroke="url(#paint1_linear_0_1)" stroke-opacity="0.4" stroke-width="1.835"/>
<path d="M2194.52 2310.11L2357.47 2798.7L2787.31 2516.82L3093.54 2146.35L2427.7 1861.78L2194.52 2310.11ZM2194.52 2310.11L1562.4 2589.31L1601.73 1982.59L1829.29 1563.79L2247.9 1260.44L2894.07 1153.05L2356.06 649.693L1773.1 820.164L1562.4 441.638L1089 751.707L1399.45 1238.96L1020.17 1563.79L845.987 2146.35L539.758 2516.82L1090.41 2900.72" stroke="url(#paint2_linear_0_1)" stroke-opacity="0.4" stroke-width="1.835"/>
<path d="M1828.12 1561.35H1019M2193.35 160L2357.7 649.937L2786.14 366.713L2193.35 160ZM2426.53 1859.34L2246.73 1258L1398.27 1236.52L1771.93 817.724L2426.53 1859.34ZM3266.55 1561.35L2246.73 1258L3266.55 1561.35Z" stroke="url(#paint3_linear_0_1)" stroke-opacity="0.4" stroke-width="1.835"/>
<path d="M1020.83 1566.11L1 1262.76M110.568 653.355L1089.66 754.027L1773.76 822.483L2248.55 1262.76L2356.72 652.012L3338.62 755.369L2894.72 1155.37L3268.38 1566.11L2428.36 1864.1L2787.97 2519.14L110.568 653.355ZM1563.05 443.957L2356.72 652.012L1563.05 443.957ZM2358.12 2801.02L1563.05 2591.63L2358.12 2801.02ZM846.642 1L1091.06 755.369L846.642 1Z" stroke="url(#paint4_linear_0_1)" stroke-opacity="0.4" stroke-width="1.835"/>
<path d="M2893.65 1171.95C2906.06 1171.95 2916.12 1162.34 2916.12 1150.48C2916.12 1138.62 2906.06 1129 2893.65 1129C2881.23 1129 2871.17 1138.62 2871.17 1150.48C2871.17 1162.34 2881.23 1171.95 2893.65 1171.95Z" fill="#230000"/>
<path d="M2247.48 1279.34C2259.89 1279.34 2269.95 1269.72 2269.95 1257.86C2269.95 1246 2259.89 1236.38 2247.48 1236.38C2235.06 1236.38 2225 1246 2225 1257.86C2225 1269.72 2235.06 1279.34 2247.48 1279.34Z" fill="#230000"/>
<path d="M2428.48 1887.95C2440.89 1887.95 2450.95 1878.34 2450.95 1866.48C2450.95 1854.62 2440.89 1845 2428.48 1845C2416.06 1845 2406 1854.62 2406 1866.48C2406 1878.34 2416.06 1887.95 2428.48 1887.95Z" fill="#230000"/>
<path d="M2783.48 2538.95C2795.89 2538.95 2805.95 2529.34 2805.95 2517.48C2805.95 2505.62 2795.89 2496 2783.48 2496C2771.06 2496 2761 2505.62 2761 2517.48C2761 2529.34 2771.06 2538.95 2783.48 2538.95Z" fill="#230000"/>
<path d="M2195.48 2332.95C2207.89 2332.95 2217.95 2323.34 2217.95 2311.48C2217.95 2299.62 2207.89 2290 2195.48 2290C2183.06 2290 2173 2299.62 2173 2311.48C2173 2323.34 2183.06 2332.95 2195.48 2332.95Z" fill="#230000"/>
<path d="M1604.48 2002.95C1616.89 2002.95 1626.95 1993.34 1626.95 1981.48C1626.95 1969.62 1616.89 1960 1604.48 1960C1592.06 1960 1582 1969.62 1582 1981.48C1582 1993.34 1592.06 2002.95 1604.48 2002.95Z" fill="#230000"/>
<path d="M1564.48 2609.95C1576.89 2609.95 1586.95 2600.34 1586.95 2588.48C1586.95 2576.62 1576.89 2567 1564.48 2567C1552.06 2567 1542 2576.62 1542 2588.48C1542 2600.34 1552.06 2609.95 1564.48 2609.95Z" fill="#230000"/>
<path d="M846.476 2162.95C858.888 2162.95 868.951 2153.34 868.951 2141.48C868.951 2129.62 858.888 2120 846.476 2120C834.063 2120 824 2129.62 824 2141.48C824 2153.34 834.063 2162.95 846.476 2162.95Z" fill="#230000"/>
<path d="M1019.48 1585.95C1031.89 1585.95 1041.95 1576.34 1041.95 1564.48C1041.95 1552.62 1031.89 1543 1019.48 1543C1007.06 1543 997 1552.62 997 1564.48C997 1576.34 1007.06 1585.95 1019.48 1585.95Z" fill="#230000"/>
<path d="M1089.48 773.953C1101.89 773.953 1111.95 764.338 1111.95 752.477C1111.95 740.615 1101.89 731 1089.48 731C1077.06 731 1067 740.615 1067 752.477C1067 764.338 1077.06 773.953 1089.48 773.953Z" fill="#230000"/>
<path d="M1771.93 839.202C1784.34 839.202 1794.41 829.586 1794.41 817.725C1794.41 805.864 1784.34 796.249 1771.93 796.249C1759.52 796.249 1749.46 805.864 1749.46 817.725C1749.46 829.586 1759.52 839.202 1771.93 839.202Z" fill="#230000"/>
<path d="M2362.48 663.953C2374.89 663.953 2384.95 654.338 2384.95 642.477C2384.95 630.615 2374.89 621 2362.48 621C2350.06 621 2340 630.615 2340 642.477C2340 654.338 2350.06 663.953 2362.48 663.953Z" fill="#230000"/>
<path d="M1397.48 1258.95C1409.89 1258.95 1419.95 1249.34 1419.95 1237.48C1419.95 1225.62 1409.89 1216 1397.48 1216C1385.06 1216 1375 1225.62 1375 1237.48C1375 1249.34 1385.06 1258.95 1397.48 1258.95Z" fill="#230000"/>
<path d="M1830.48 1578.95C1842.89 1578.95 1852.95 1569.34 1852.95 1557.48C1852.95 1545.62 1842.89 1536 1830.48 1536C1818.06 1536 1808 1545.62 1808 1557.48C1808 1569.34 1818.06 1578.95 1830.48 1578.95Z" fill="#230000"/>
<defs>
<linearGradient id="paint0_linear_0_1" x1="1913.57" y1="369.154" x2="1913.57" y2="2900.72" gradientUnits="userSpaceOnUse">
<stop stop-color="#6A0000"/>
<stop offset="1" stop-color="#030303" stop-opacity="0.77"/>
</linearGradient>
<linearGradient id="paint1_linear_0_1" x1="1537.11" y1="1153.05" x2="1537.11" y2="2967.83" gradientUnits="userSpaceOnUse">
<stop stop-color="#6A0000"/>
<stop offset="1" stop-color="#030303" stop-opacity="0.77"/>
</linearGradient>
<linearGradient id="paint2_linear_0_1" x1="1816.65" y1="441.638" x2="1816.65" y2="2900.72" gradientUnits="userSpaceOnUse">
<stop stop-color="#6A0000"/>
<stop offset="1" stop-color="#030303" stop-opacity="0.77"/>
</linearGradient>
<linearGradient id="paint3_linear_0_1" x1="2142.78" y1="160" x2="2142.78" y2="1859.34" gradientUnits="userSpaceOnUse">
<stop stop-color="#6A0000"/>
<stop offset="1" stop-color="#030303" stop-opacity="0.77"/>
</linearGradient>
<linearGradient id="paint4_linear_0_1" x1="1669.81" y1="1" x2="1669.81" y2="2801.02" gradientUnits="userSpaceOnUse">
<stop stop-color="#6A0000"/>
<stop offset="1" stop-color="#030303" stop-opacity="0.77"/>
</linearGradient>
</defs>
</svg>
