<svg width="3831" height="3277" viewBox="0 0 3831 3277" fill="none" xmlns="http://www.w3.org/2000/svg">
<g clip-path="url(#clip0_1304_511)">
<rect width="3831" height="3277" fill="#030303"/>
<path d="M3306.96 3007.72L2756.31 2623.82L2163.52 2417.11L1570.73 2089.59L814.986 2253.35L1531.39 2696.31L1058 3006.38L814.986 2253.35L149.148 1968.78L989.172 1670.8L615.516 1260.05L1058 858.708L508.757 476.154M2863.07 1260.05L3616 1345.69L2863.07 1260.05Z" stroke="url(#paint0_linear_1304_511)" stroke-opacity="0.4" stroke-width="1.835"/>
<path d="M1742.1 3074.83L1531.39 2696.31M615.516 1260.05L1368.45 1345.96L1798.29 1670.79L2396.7 1968.78L1569.32 2088.25L987.767 1669.45L615.516 1260.05Z" stroke="url(#paint1_linear_1304_511)" stroke-opacity="0.4" stroke-width="1.835"/>
<path d="M2163.52 2417.11L2326.47 2905.7L2756.31 2623.82L3062.54 2253.35L2396.7 1968.78L2163.52 2417.11ZM2163.52 2417.11L1531.39 2696.31L1570.73 2089.59L1798.29 1670.79L2216.9 1367.44L2863.07 1260.05L2325.06 756.692L1742.1 927.163L1531.39 548.637L1058 858.706L1368.45 1345.96L989.172 1670.79L814.987 2253.35L508.758 2623.82L1059.41 3007.72" stroke="url(#paint2_linear_1304_511)" stroke-opacity="0.4" stroke-width="1.835"/>
<path d="M1797.12 1668.35H988M2162.35 267L2326.7 756.937L2755.14 473.713L2162.35 267ZM2395.53 1966.34L2215.73 1365L1367.27 1343.52L1740.93 924.724L2395.53 1966.34ZM3235.55 1668.35L2215.73 1365L3235.55 1668.35Z" stroke="url(#paint3_linear_1304_511)" stroke-opacity="0.4" stroke-width="1.835"/>
<path d="M989.827 1673.11L-30 1369.76M79.5682 760.355L1058.66 861.027L1742.76 929.483L2217.55 1369.76L2325.72 759.012L3307.62 862.369L2863.72 1262.37L3237.38 1673.11L2397.36 1971.1L2756.97 2626.14L79.5682 760.355ZM1532.05 550.957L2325.72 759.012L1532.05 550.957ZM2327.12 2908.02L1532.05 2698.63L2327.12 2908.02ZM815.642 108L1060.06 862.369L815.642 108Z" stroke="url(#paint4_linear_1304_511)" stroke-opacity="0.4" stroke-width="1.835"/>
<path d="M2862.65 1278.95C2875.06 1278.95 2885.12 1269.34 2885.12 1257.48C2885.12 1245.62 2875.06 1236 2862.65 1236C2850.23 1236 2840.17 1245.62 2840.17 1257.48C2840.17 1269.34 2850.23 1278.95 2862.65 1278.95Z" fill="#570202"/>
<path d="M2216.48 1386.34C2228.89 1386.34 2238.95 1376.72 2238.95 1364.86C2238.95 1353 2228.89 1343.38 2216.48 1343.38C2204.06 1343.38 2194 1353 2194 1364.86C2194 1376.72 2204.06 1386.34 2216.48 1386.34Z" fill="#570202"/>
<path d="M2397.48 1994.95C2409.89 1994.95 2419.95 1985.34 2419.95 1973.48C2419.95 1961.62 2409.89 1952 2397.48 1952C2385.06 1952 2375 1961.62 2375 1973.48C2375 1985.34 2385.06 1994.95 2397.48 1994.95Z" fill="#570202"/>
<path d="M2752.48 2645.95C2764.89 2645.95 2774.95 2636.34 2774.95 2624.48C2774.95 2612.62 2764.89 2603 2752.48 2603C2740.06 2603 2730 2612.62 2730 2624.48C2730 2636.34 2740.06 2645.95 2752.48 2645.95Z" fill="#570202"/>
<path d="M2164.48 2439.95C2176.89 2439.95 2186.95 2430.34 2186.95 2418.48C2186.95 2406.62 2176.89 2397 2164.48 2397C2152.06 2397 2142 2406.62 2142 2418.48C2142 2430.34 2152.06 2439.95 2164.48 2439.95Z" fill="#570202"/>
<path d="M1573.48 2109.95C1585.89 2109.95 1595.95 2100.34 1595.95 2088.48C1595.95 2076.62 1585.89 2067 1573.48 2067C1561.06 2067 1551 2076.62 1551 2088.48C1551 2100.34 1561.06 2109.95 1573.48 2109.95Z" fill="#570202"/>
<path d="M1533.48 2716.95C1545.89 2716.95 1555.95 2707.34 1555.95 2695.48C1555.95 2683.62 1545.89 2674 1533.48 2674C1521.06 2674 1511 2683.62 1511 2695.48C1511 2707.34 1521.06 2716.95 1533.48 2716.95Z" fill="#570202"/>
<path d="M815.476 2269.95C827.888 2269.95 837.951 2260.34 837.951 2248.48C837.951 2236.62 827.888 2227 815.476 2227C803.063 2227 793 2236.62 793 2248.48C793 2260.34 803.063 2269.95 815.476 2269.95Z" fill="#570202"/>
<path d="M988.476 1692.95C1000.89 1692.95 1010.95 1683.34 1010.95 1671.48C1010.95 1659.62 1000.89 1650 988.476 1650C976.063 1650 966 1659.62 966 1671.48C966 1683.34 976.063 1692.95 988.476 1692.95Z" fill="#570202"/>
<path d="M1058.48 880.953C1070.89 880.953 1080.95 871.338 1080.95 859.477C1080.95 847.615 1070.89 838 1058.48 838C1046.06 838 1036 847.615 1036 859.477C1036 871.338 1046.06 880.953 1058.48 880.953Z" fill="#570202"/>
<path d="M1740.93 946.201C1753.34 946.201 1763.41 936.586 1763.41 924.725C1763.41 912.863 1753.34 903.248 1740.93 903.248C1728.52 903.248 1718.46 912.863 1718.46 924.725C1718.46 936.586 1728.52 946.201 1740.93 946.201Z" fill="#570202"/>
<path d="M2331.48 770.953C2343.89 770.953 2353.95 761.338 2353.95 749.477C2353.95 737.615 2343.89 728 2331.48 728C2319.06 728 2309 737.615 2309 749.477C2309 761.338 2319.06 770.953 2331.48 770.953Z" fill="#570202"/>
<path d="M1366.48 1365.95C1378.89 1365.95 1388.95 1356.34 1388.95 1344.48C1388.95 1332.62 1378.89 1323 1366.48 1323C1354.06 1323 1344 1332.62 1344 1344.48C1344 1356.34 1354.06 1365.95 1366.48 1365.95Z" fill="#570202"/>
<path d="M1799.48 1685.95C1811.89 1685.95 1821.95 1676.34 1821.95 1664.48C1821.95 1652.62 1811.89 1643 1799.48 1643C1787.06 1643 1777 1652.62 1777 1664.48C1777 1676.34 1787.06 1685.95 1799.48 1685.95Z" fill="#570202"/>
</g>
<defs>
<linearGradient id="paint0_linear_1304_511" x1="1882.57" y1="476.154" x2="1882.57" y2="3007.72" gradientUnits="userSpaceOnUse">
<stop stop-color="#A62121"/>
<stop offset="1" stop-color="#C80000"/>
</linearGradient>
<linearGradient id="paint1_linear_1304_511" x1="1506.11" y1="1260.05" x2="1506.11" y2="3074.83" gradientUnits="userSpaceOnUse">
<stop stop-color="#A62121"/>
<stop offset="1" stop-color="#C80000"/>
</linearGradient>
<linearGradient id="paint2_linear_1304_511" x1="1785.65" y1="548.637" x2="1785.65" y2="3007.72" gradientUnits="userSpaceOnUse">
<stop stop-color="#A62121"/>
<stop offset="1" stop-color="#C80000"/>
</linearGradient>
<linearGradient id="paint3_linear_1304_511" x1="2111.78" y1="267" x2="2111.78" y2="1966.34" gradientUnits="userSpaceOnUse">
<stop stop-color="#A62121"/>
<stop offset="1" stop-color="#C80000"/>
</linearGradient>
<linearGradient id="paint4_linear_1304_511" x1="1638.81" y1="108" x2="1638.81" y2="2908.02" gradientUnits="userSpaceOnUse">
<stop stop-color="#A62121"/>
<stop offset="1" stop-color="#C80000"/>
</linearGradient>
<clipPath id="clip0_1304_511">
<rect width="3831" height="3277" fill="white"/>
</clipPath>
</defs>
</svg>
