<svg width="204" height="204" viewBox="0 0 204 204" fill="none" xmlns="http://www.w3.org/2000/svg">
<rect x="-0.000976562" width="204" height="204" rx="14" fill="#860000"/>
<path d="M143.583 119.74H59.416C57.1014 119.74 56.2598 118.898 56.2598 116.583V32.4166C56.2598 30.102 57.1014 29.2604 59.416 29.2604H143.583C145.897 29.2604 146.739 30.102 146.739 32.4166V116.583C146.739 118.898 145.897 119.74 143.583 119.74Z" stroke="#D6D6D6" stroke-width="6" stroke-miterlimit="10" stroke-linecap="round" stroke-linejoin="round"/>
<path d="M108.233 74.5H94.766C92.6618 74.5 90.9785 72.8167 90.9785 70.7125V46.725C90.9785 44.6208 92.6618 42.9375 94.766 42.9375H108.338C110.442 42.9375 112.125 44.6208 112.125 46.725V70.8177C112.02 72.8167 110.337 74.5 108.233 74.5Z" stroke="#D6D6D6" stroke-width="4" stroke-miterlimit="10" stroke-linecap="round" stroke-linejoin="round"/>
<path d="M64.6758 110.271H138.322" stroke="#D6D6D6" stroke-width="4" stroke-miterlimit="10" stroke-linecap="round" stroke-linejoin="round"/>
<path d="M55.207 55.5625H86.7695" stroke="#D6D6D6" stroke-width="4" stroke-miterlimit="10" stroke-linejoin="round"/>
<path d="M116.229 55.5625H147.791" stroke="#D6D6D6" stroke-width="4" stroke-miterlimit="10" stroke-linejoin="round"/>
<path d="M95.1865 41.8854C95.1865 41.8854 95.1865 40.4125 95.1865 38.7291C95.1865 37.0458 97.0803 35.5729 99.3949 35.5729H103.603C105.918 35.5729 107.812 34.1 107.812 32.4166C107.812 30.7333 107.812 29.2604 107.812 29.2604" stroke="#D6D6D6" stroke-width="4" stroke-miterlimit="10" stroke-linejoin="round"/>
<path d="M104.655 90.2813H98.3428L95.1865 80.8125H107.812L104.655 90.2813Z" stroke="#D6D6D6" stroke-width="4" stroke-miterlimit="10" stroke-linecap="round" stroke-linejoin="round"/>
<path d="M101.499 94.4896V99.75C101.499 102.065 103.393 103.958 105.707 103.958H133.062" stroke="#D6D6D6" stroke-width="4" stroke-miterlimit="10" stroke-linejoin="round"/>
<path d="M105.707 49.25V68.1875" stroke="#D6D6D6" stroke-width="4" stroke-miterlimit="10" stroke-linecap="round" stroke-linejoin="round"/>
<path d="M100.447 49.25V61.875" stroke="#D6D6D6" stroke-width="4" stroke-miterlimit="10" stroke-linecap="round" stroke-linejoin="round"/>
<path d="M49.4694 162.276C53.1494 162.276 55.5184 160.413 55.5184 157.768C55.5184 155.468 53.4945 154.249 51.9304 154.088C53.6324 153.789 55.2884 152.524 55.2884 150.592C55.2884 148.039 53.0804 146.429 49.4924 146.429C46.8014 146.429 44.8694 147.464 43.6274 148.867L45.2604 150.914C46.3414 149.879 47.6754 149.327 49.1704 149.327C50.7574 149.327 52.0224 149.925 52.0224 151.144C52.0224 152.271 50.8724 152.777 49.1704 152.777C48.5954 152.777 47.5374 152.777 47.2614 152.754V155.698C47.4914 155.675 48.5264 155.652 49.1704 155.652C51.3094 155.652 52.2524 156.204 52.2524 157.423C52.2524 158.573 51.2174 159.378 49.3544 159.378C47.8594 159.378 46.1804 158.734 45.1454 157.63L43.4204 159.815C44.5474 161.195 46.6634 162.276 49.4694 162.276ZM64.0495 162C68.8335 162 72.1685 158.964 72.1685 154.318C72.1685 149.718 68.8335 146.659 64.0265 146.659H57.9775V162H64.0495ZM64.0265 159.125H61.2435V149.534H64.0495C67.1775 149.534 68.8335 151.627 68.8335 154.318C68.8335 156.94 67.0625 159.125 64.0265 159.125ZM83.6595 162V156.526H87.5695C90.8815 156.526 92.7215 154.272 92.7215 151.604C92.7215 148.913 90.9045 146.659 87.5695 146.659H80.3935V162H83.6595ZM87.1095 153.651H83.6595V149.534H87.1095C88.3975 149.534 89.3865 150.316 89.3865 151.604C89.3865 152.869 88.3975 153.651 87.1095 153.651ZM97.6205 162V154.663C98.1035 153.95 99.3915 153.398 100.357 153.398C100.702 153.398 100.955 153.421 101.162 153.467V150.615C99.7825 150.615 98.4255 151.42 97.6205 152.386V150.891H94.6995V162H97.6205ZM104.437 149.695C105.403 149.695 106.185 148.913 106.185 147.947C106.185 146.981 105.403 146.222 104.437 146.222C103.494 146.222 102.712 146.981 102.712 147.947C102.712 148.913 103.494 149.695 104.437 149.695ZM105.909 162V150.891H102.988V162H105.909ZM119.247 162V154.157C119.247 151.995 118.074 150.615 115.613 150.615C113.819 150.615 112.439 151.489 111.726 152.317V150.891H108.805V162H111.726V154.502C112.232 153.858 113.106 153.214 114.256 153.214C115.498 153.214 116.303 153.743 116.303 155.284V162H119.247ZM125.85 162.276C127.069 162.276 127.851 161.954 128.288 161.563L127.667 159.332C127.506 159.516 127.092 159.677 126.655 159.677C126.011 159.677 125.643 159.148 125.643 158.435V153.444H127.897V150.891H125.643V147.855H122.722V150.891H120.882V153.444H122.722V159.217C122.722 161.218 123.803 162.276 125.85 162.276ZM131.345 149.695C132.311 149.695 133.093 148.913 133.093 147.947C133.093 146.981 132.311 146.222 131.345 146.222C130.402 146.222 129.62 146.981 129.62 147.947C129.62 148.913 130.402 149.695 131.345 149.695ZM132.817 162V150.891H129.896V162H132.817ZM146.155 162V154.157C146.155 151.995 144.982 150.615 142.521 150.615C140.727 150.615 139.347 151.489 138.634 152.317V150.891H135.713V162H138.634V154.502C139.14 153.858 140.014 153.214 141.164 153.214C142.406 153.214 143.211 153.743 143.211 155.284V162H146.155ZM153.586 166.508C156.323 166.508 159.589 165.473 159.589 161.264V150.891H156.668V152.317C155.771 151.167 154.552 150.615 153.218 150.615C150.412 150.615 148.319 152.639 148.319 156.273C148.319 159.976 150.458 161.908 153.218 161.908C154.598 161.908 155.794 161.287 156.668 160.183V161.264C156.668 163.518 154.989 164.116 153.586 164.116C152.206 164.116 151.01 163.725 150.113 162.759L148.802 164.852C150.205 166.071 151.7 166.508 153.586 166.508ZM154.161 159.332C152.482 159.332 151.332 158.182 151.332 156.273C151.332 154.364 152.482 153.214 154.161 153.214C155.104 153.214 156.162 153.743 156.668 154.456V158.067C156.162 158.78 155.104 159.332 154.161 159.332ZM86.7674 185.276C90.1254 185.276 92.0804 183.413 93.1614 181.504L90.3554 180.147C89.7114 181.389 88.3314 182.378 86.7674 182.378C83.9614 182.378 81.9374 180.239 81.9374 177.341C81.9374 174.443 83.9614 172.304 86.7674 172.304C88.3314 172.304 89.7114 173.293 90.3554 174.535L93.1614 173.155C92.0804 171.223 90.1254 169.406 86.7674 169.406C82.1444 169.406 78.5794 172.603 78.5794 177.341C78.5794 182.056 82.1444 185.276 86.7674 185.276ZM97.9574 185V169.659H95.0364V185H97.9574ZM111.273 185V173.891H108.352V181.412C107.846 182.056 106.949 182.677 105.822 182.677C104.58 182.677 103.775 182.171 103.775 180.63V173.891H100.854V181.78C100.854 183.942 102.004 185.276 104.442 185.276C106.259 185.276 107.593 184.425 108.352 183.597V185H111.273ZM117.094 181.435V177.502C117.6 176.766 118.658 176.214 119.624 176.214C121.303 176.214 122.43 177.525 122.43 179.434C122.43 181.366 121.303 182.677 119.624 182.677C118.658 182.677 117.6 182.148 117.094 181.435ZM117.094 185V183.574C117.968 184.678 119.187 185.276 120.521 185.276C123.327 185.276 125.443 183.16 125.443 179.434C125.443 175.823 123.35 173.615 120.521 173.615C119.21 173.615 117.968 174.167 117.094 175.317V169.659H114.173V185H117.094Z" fill="#D6D6D6"/>
</svg>
