<svg width="228" height="283" viewBox="0 0 228 283" fill="none" xmlns="http://www.w3.org/2000/svg">
<rect x="-0.000976562" width="204" height="204" rx="14" fill="#860000"/>
<path d="M78.1261 124.698C77.7059 124.696 77.2951 124.574 76.9424 124.345C76.6402 124.148 76.3921 123.878 76.2209 123.56C76.0497 123.242 75.9607 122.886 75.9623 122.524L75.9453 108.958C75.9466 108.515 76.0833 108.082 76.3371 107.719C76.5908 107.356 76.9493 107.08 77.3642 106.927L89.1662 102.464L89.0901 41.835C89.0877 40.6083 89.4339 39.4062 90.0882 38.3699L98.4773 25.0798C98.6818 24.7951 98.9507 24.5631 99.2619 24.4029C99.5731 24.2427 99.9177 24.1589 100.267 24.1583C100.617 24.1578 100.962 24.2405 101.274 24.3998C101.585 24.559 101.855 24.7902 102.06 25.0743L110.482 38.3384C111.139 39.3727 111.488 40.5737 111.489 41.8004L111.565 102.43L123.403 106.865C123.814 107.02 124.168 107.297 124.418 107.659C124.668 108.021 124.802 108.451 124.802 108.891L124.819 122.449C124.821 122.811 124.732 123.167 124.561 123.486C124.39 123.805 124.142 124.076 123.84 124.274C123.538 124.472 123.191 124.591 122.832 124.62C122.472 124.649 122.111 124.588 121.782 124.441L100.883 115.212C100.725 115.143 100.554 115.107 100.382 115.107C100.209 115.108 100.038 115.144 99.8805 115.214L79.0297 124.507C78.7457 124.635 78.4374 124.7 78.1261 124.698ZM78.9287 109.506L78.9435 121.299L98.7021 112.502C99.2364 112.265 99.8141 112.142 100.398 112.141C100.983 112.14 101.561 112.261 102.096 112.497L121.884 121.233L121.87 109.44L108.634 104.512L108.556 41.8379C108.555 41.1749 108.366 40.5258 108.011 39.9668L100.272 27.7902L92.5881 39.9576C92.2431 40.5203 92.0644 41.1698 92.0728 41.8304L92.1514 104.505L78.9287 109.506Z" fill="#D6D6D6"/>
<path d="M53.2463 86.6289C52.7374 86.6313 52.2446 86.4507 51.8571 86.1197C51.617 85.9175 51.4234 85.6655 51.2897 85.3809C51.156 85.0964 51.0854 84.7862 51.0826 84.4716L51.0696 74.122C51.0686 73.688 51.197 73.2635 51.4381 72.9031C51.6792 72.5428 52.0222 72.2629 52.4229 72.0995L90.0284 56.8182C90.3933 56.67 90.8018 56.6733 91.1641 56.8274C91.5264 56.9815 91.8129 57.2737 91.9604 57.6398C92.108 58.006 92.1046 58.416 91.9509 58.7796C91.7973 59.1433 91.506 59.4309 91.1412 59.5791L54.0283 74.6535L54.0395 83.5516L90.3498 77.1539C90.7365 77.0855 91.1344 77.1741 91.456 77.4002C91.7776 77.6262 91.9964 77.9713 92.0645 78.3594C92.1325 78.7475 92.0442 79.1469 91.8188 79.4697C91.5935 79.7925 91.2496 80.0123 90.8629 80.0807L53.6243 86.6365C53.4984 86.6465 53.3718 86.644 53.2463 86.6289Z" fill="#D6D6D6"/>
<path d="M147.428 86.4891C147.302 86.5018 147.175 86.502 147.05 86.4897L109.795 80.0488C109.603 80.0155 109.42 79.9447 109.256 79.8404C109.092 79.7361 108.949 79.6003 108.837 79.4408C108.725 79.2813 108.646 79.1012 108.603 78.9108C108.561 78.7205 108.556 78.5235 108.589 78.3312C108.622 78.139 108.693 77.9551 108.797 77.7902C108.901 77.6253 109.036 77.4826 109.195 77.3701C109.354 77.2577 109.533 77.1778 109.723 77.1349C109.913 77.0921 110.109 77.0872 110.301 77.1205L146.627 83.4061L146.616 74.5162L109.465 59.5564C109.101 59.4093 108.81 59.1231 108.656 58.7606C108.503 58.3982 108.499 57.9893 108.645 57.6238C108.792 57.2583 109.077 56.9662 109.438 56.8118C109.799 56.6574 110.207 56.6532 110.571 56.8003L148.215 71.9655C148.616 72.1277 148.96 72.4064 149.202 72.7661C149.444 73.1257 149.573 73.5498 149.573 73.9838L149.586 84.3169C149.584 84.6315 149.514 84.9419 149.381 85.2269C149.248 85.5118 149.055 85.7644 148.816 85.9674C148.43 86.3026 147.938 86.4877 147.428 86.4891Z" fill="#D6D6D6"/>
<path d="M100.368 108.43C100.174 108.43 99.9818 108.392 99.8023 108.318C99.6228 108.244 99.4596 108.135 99.3221 107.997C99.1846 107.859 99.0754 107.696 99.0009 107.516C98.9263 107.336 98.8878 107.143 98.8876 106.948L98.7978 35.392C98.7973 34.9983 98.9526 34.6205 99.2296 34.3417C99.5067 34.0629 99.8827 33.9059 100.275 33.9053C100.667 33.9047 101.044 34.0605 101.321 34.3385C101.599 34.6164 101.755 34.9937 101.756 35.3874L101.846 106.943C101.844 107.337 101.688 107.713 101.411 107.991C101.135 108.27 100.76 108.427 100.368 108.43Z" fill="#D6D6D6"/>
<path d="M66.823 172L60.912 156.659H56.818L50.907 172H54.61L55.576 169.401H62.154L63.12 172H66.823ZM61.257 166.526H56.473L58.865 159.925L61.257 166.526ZM73.3917 172.276C75.1167 172.276 76.8647 171.747 77.9687 170.735L76.6577 168.803C75.9447 169.493 74.6567 169.884 73.7137 169.884C71.8277 169.884 70.7237 168.757 70.5167 167.4H78.7737V166.71C78.7737 163.099 76.5427 160.615 73.2077 160.615C69.8497 160.615 67.4577 163.214 67.4577 166.434C67.4577 169.999 70.0107 172.276 73.3917 172.276ZM75.9677 165.376H70.4937C70.6087 164.272 71.3907 163.007 73.2077 163.007C75.1397 163.007 75.8757 164.318 75.9677 165.376ZM83.8046 172V164.663C84.2876 163.95 85.5756 163.398 86.5416 163.398C86.8866 163.398 87.1396 163.421 87.3466 163.467V160.615C85.9666 160.615 84.6096 161.42 83.8046 162.386V160.891H80.8836V172H83.8046ZM94.3237 172.276C98.0037 172.276 100.212 169.585 100.212 166.434C100.212 163.283 98.0037 160.615 94.3237 160.615C90.6667 160.615 88.4587 163.283 88.4587 166.434C88.4587 169.585 90.6667 172.276 94.3237 172.276ZM94.3237 169.677C92.5067 169.677 91.4947 168.182 91.4947 166.434C91.4947 164.709 92.5067 163.214 94.3237 163.214C96.1637 163.214 97.1757 164.709 97.1757 166.434C97.1757 168.182 96.1637 169.677 94.3237 169.677ZM115.829 172.276C119.187 172.276 121.142 170.413 122.223 168.504L119.417 167.147C118.773 168.389 117.393 169.378 115.829 169.378C113.023 169.378 110.999 167.239 110.999 164.341C110.999 161.443 113.023 159.304 115.829 159.304C117.393 159.304 118.773 160.293 119.417 161.535L122.223 160.155C121.142 158.223 119.187 156.406 115.829 156.406C111.206 156.406 107.641 159.603 107.641 164.341C107.641 169.056 111.206 172.276 115.829 172.276ZM127.019 172V156.659H124.098V172H127.019ZM140.335 172V160.891H137.414V168.412C136.908 169.056 136.011 169.677 134.884 169.677C133.642 169.677 132.837 169.171 132.837 167.63V160.891H129.916V168.78C129.916 170.942 131.066 172.276 133.504 172.276C135.321 172.276 136.655 171.425 137.414 170.597V172H140.335ZM146.156 168.435V164.502C146.662 163.766 147.72 163.214 148.686 163.214C150.365 163.214 151.492 164.525 151.492 166.434C151.492 168.366 150.365 169.677 148.686 169.677C147.72 169.677 146.662 169.148 146.156 168.435ZM146.156 172V170.574C147.03 171.678 148.249 172.276 149.583 172.276C152.389 172.276 154.505 170.16 154.505 166.434C154.505 162.823 152.412 160.615 149.583 160.615C148.272 160.615 147.03 161.167 146.156 162.317V156.659H143.235V172H146.156Z" fill="#D6D6D6"/>
</svg>
