<?xml version="1.0" encoding="utf-8"?>
<!-- Generator: Adobe Illustrator 15.0.0, SVG Export Plug-In . SVG Version: 6.00 Build 0)  -->
<!DOCTYPE svg PUBLIC "-//W3C//DTD SVG 1.1//EN" "http://www.w3.org/Graphics/SVG/1.1/DTD/svg11.dtd">
<svg version="1.1" id="Layer_1" xmlns="http://www.w3.org/2000/svg" xmlns:xlink="http://www.w3.org/1999/xlink" x="0px" y="0px"
	 width="700px" height="560px" viewBox="0 0 700 560" enable-background="new 0 0 700 560" xml:space="preserve">
<g id="Layer_1_1_">
	<g opacity="0.7">
		<g>
			<path d="M12.985,246.302c0-3.975,0-7.95,0-11.925c2.049-38.301,14.227-68.607,32.074-93.345
				c17.299-23.976,41.193-43.67,69.289-55.719c14.464-6.202,31.002-10.992,49.551-12.953c19.135-2.022,39.933-0.759,57.364,3.495
				c33.159,8.093,59.441,24.184,79.981,45.027c-13.963,13.727-27.803,27.574-41.533,41.533
				c-13.828-13.578-30.895-23.994-53.046-29.196c-11.431-2.684-25.438-3.592-37.832-2.056c-12.073,1.497-22.963,4.806-32.28,9.047
				c-18.609,8.472-33.42,20.836-44.822,37.42C80.252,194.328,72.2,214.225,72.2,240.545c0,26.449,8.125,46.211,19.532,62.71
				c11.278,16.313,26.633,29.201,45.028,37.42c18.315,8.186,45.505,12.713,70.317,6.785c20.589-4.919,37.224-14.796,50.168-26.935
				c0.816-0.767,1.892-2.313,2.673-1.852c13.699,13.715,27.424,27.404,41.121,41.121c-1.96,2.979-4.928,5.25-7.608,7.606
				c-8.404,7.391-17.378,13.854-27.345,19.531c-25.514,14.537-61.696,25.968-101.569,21.589
				c-18.603-2.041-35.018-6.896-49.551-13.157c-28.592-12.321-52.079-31.291-69.7-55.517
				C27.417,315.318,15.264,285.702,12.985,246.302z"/>
		</g>
	</g>
	<path opacity="0.7" enable-background="new    " d="M491.018,31.448c19.396,0,38.791,0,58.188,0c0,14.05,0,28.1,0,42.149
		c41.278,7.752,72.366,27.419,96.018,53.046c23.685,25.661,40.459,59.63,43.794,105.27c0,5.62,0,11.24,0,16.86
		c-3.34,45.573-20.098,79.474-43.588,105.27c-23.426,25.726-54.854,45.089-96.018,52.841c-0.48,13.844-0.069,28.578-0.206,42.768
		c-19.396,0-38.792,0-58.188,0c0-14.257,0-28.513,0-42.768c-42.947-7.991-74.138-27.725-98.277-55.103
		C369.533,325.465,351,288.768,351,240.137c0-24.826,5.07-45.773,12.543-64.148c7.407-18.215,17.657-33.953,29.4-47.289
		c24.188-27.469,55.645-46.655,98.072-55.308C491.018,59.411,491.018,45.429,491.018,31.448z M434.065,171.466
		c-13.888,17.187-23.853,39.394-23.853,69.288c0,29.413,10.528,51.926,24.261,68.878c14.093,17.396,32.31,29.758,56.542,36.804
		c-0.137-70.66,0.274-141.868-0.206-212.185C466.694,141.315,448.076,154.123,434.065,171.466z M549.204,134.867
		c0.137,70.458-0.274,141.454,0.206,211.566c23.91-7.068,41.99-19.576,56.13-37.009c13.733-16.932,24.262-38.825,24.262-68.878
		c0-30.07-10.277-51.891-24.057-69.083c-14.013-17.486-32.22-30.181-56.335-37.009C549.345,134.125,549.117,134.473,549.204,134.867
		z"/>
	<g>
		<g>
			
				<linearGradient id="SVGID_1_" gradientUnits="userSpaceOnUse" x1="247.1147" y1="458.4678" x2="247.1147" y2="120.4185" gradientTransform="matrix(1 0 0 1 -92 -51)">
				<stop  offset="0" style="stop-color:#000000"/>
				<stop  offset="1" style="stop-color:#1A1A1A"/>
			</linearGradient>
			<path fill="url(#SVGID_1_)" d="M10.985,244.302c0-3.975,0-7.95,0-11.925c2.049-38.301,14.227-68.607,32.074-93.345
				c17.299-23.976,41.193-43.67,69.289-55.719c14.464-6.202,31.002-10.992,49.551-12.953c19.135-2.022,39.933-0.759,57.364,3.495
				c33.159,8.093,59.441,24.184,79.981,45.027c-13.963,13.727-27.803,27.574-41.533,41.533
				c-13.828-13.578-30.895-23.994-53.046-29.196c-11.431-2.684-25.438-3.592-37.832-2.056c-12.073,1.497-22.963,4.806-32.28,9.047
				c-18.609,8.472-33.42,20.836-44.822,37.42C78.252,192.328,70.2,212.225,70.2,238.545c0,26.449,8.125,46.211,19.532,62.71
				c11.278,16.313,26.633,29.201,45.028,37.42c18.315,8.186,45.505,12.713,70.317,6.785c20.589-4.919,37.224-14.796,50.168-26.935
				c0.816-0.767,1.892-2.313,2.673-1.852c13.699,13.715,27.424,27.404,41.121,41.121c-1.96,2.979-4.928,5.25-7.608,7.606
				c-8.404,7.391-17.378,13.854-27.345,19.531c-25.514,14.537-61.696,25.968-101.569,21.589
				c-18.603-2.041-35.018-6.896-49.551-13.157c-28.592-12.321-52.079-31.291-69.7-55.517
				C25.417,313.318,13.264,283.702,10.985,244.302z"/>
		</g>
	</g>
	
		<linearGradient id="SVGID_2_" gradientUnits="userSpaceOnUse" x1="610.0088" y1="498.6514" x2="610.0088" y2="80.4487" gradientTransform="matrix(1 0 0 1 -92 -51)">
		<stop  offset="0" style="stop-color:#AA0000"/>
		<stop  offset="0.1093" style="stop-color:#B60000"/>
		<stop  offset="0.4991" style="stop-color:#DE0000"/>
		<stop  offset="0.8095" style="stop-color:#F60000"/>
		<stop  offset="1" style="stop-color:#FF0000"/>
	</linearGradient>
	<path fill="url(#SVGID_2_)" d="M489.018,29.448c19.396,0,38.791,0,58.188,0c0,14.05,0,28.1,0,42.149
		c41.278,7.752,72.366,27.419,96.018,53.046c23.685,25.661,40.459,59.63,43.794,105.27c0,5.62,0,11.24,0,16.86
		c-3.34,45.573-20.098,79.474-43.588,105.27c-23.426,25.726-54.854,45.089-96.018,52.841c-0.48,13.844-0.069,28.578-0.206,42.768
		c-19.396,0-38.792,0-58.188,0c0-14.257,0-28.513,0-42.768c-42.947-7.991-74.138-27.725-98.277-55.103
		C367.533,323.465,349,286.768,349,238.137c0-24.826,5.07-45.773,12.543-64.148c7.407-18.215,17.657-33.953,29.4-47.289
		c24.188-27.469,55.645-46.655,98.072-55.308C489.018,57.411,489.018,43.429,489.018,29.448z M432.065,169.466
		c-13.888,17.187-23.853,39.394-23.853,69.288c0,29.413,10.528,51.926,24.261,68.878c14.093,17.396,32.31,29.758,56.542,36.804
		c-0.137-70.66,0.274-141.868-0.206-212.185C464.694,139.315,446.076,152.123,432.065,169.466z M547.204,132.867
		c0.137,70.458-0.274,141.454,0.206,211.566c23.91-7.068,41.99-19.576,56.13-37.009c13.733-16.932,24.262-38.825,24.262-68.878
		c0-30.07-10.277-51.891-24.057-69.083c-14.013-17.486-32.22-30.181-56.335-37.009C547.345,132.125,547.117,132.473,547.204,132.867
		z"/>
</g>
<g id="Layer_2">
	
		<text transform="matrix(1 0 0 1 14.7051 522)" opacity="0.7" enable-background="new    " font-family="'Ubuntu-Regular'" font-size="67">Centre For Innovation</text>
	<text transform="matrix(1 0 0 1 13.7051 520)" font-family="'Ubuntu-Regular'" font-size="67">Centre </text>
	<text transform="matrix(1 0 0 1 238.7529 520)" fill="#FF0000" font-family="'Ubuntu-Regular'" font-size="67">For Innovation</text>
</g>
</svg>
