<svg id="Layer_1" data-name="Layer 1" xmlns="http://www.w3.org/2000/svg" viewBox="0 0 240 240"><defs><style>.cls-1{fill:#d6d6d6;}</style></defs><title>awards</title><path class="cls-1" d="M179.14,3.92V17.53c5.22,0,10.36-.23,15.47.08a38.15,38.15,0,0,1,10.64,1.86c12.31,4.44,19.42,17.38,17.05,30.37A27.34,27.34,0,0,1,195.75,72c-5.44,0-10.89,0-16.59,0-.56,20.3-8.64,36.74-25.18,48.64a56.79,56.79,0,0,1-37.47,10.67c-32.66-2-56.34-29.6-55.68-59.31-5.36,0-10.71,0-16.07,0A27.08,27.08,0,0,1,32.5,69.16C21.35,63.7,15.14,50.89,17.9,39A27.36,27.36,0,0,1,44.09,17.56c5.52-.08,11,0,16.84,0V3.92ZM60.86,58.25V31.16c-5.64,0-11.15-.1-16.65,0A13.63,13.63,0,0,0,31,43.9c-.41,7,4.5,13.58,11.53,14.23C48.53,58.7,54.67,58.25,60.86,58.25Zm118.29,0c.47.07.69.13.91.14,5.3,0,10.59.07,15.89,0a13.58,13.58,0,0,0,2.87-26.76,6.48,6.48,0,0,0-1.55-.32c-6,0-12,0-18.12,0Z"/><path class="cls-1" d="M186.37,181.92v40.56h13.51v13.6H40.2V222.63H53.62V181.92Zm-41.11,27V195.52H94.8V208.9Z"/><path class="cls-1" d="M91.57,168c1.58-9,3.12-17.83,4.71-26.9a73.83,73.83,0,0,0,47.51,0c1.58,9,3.12,17.87,4.7,26.88Z"/></svg>