<svg id="Layer_1" data-name="Layer 1" xmlns="http://www.w3.org/2000/svg" viewBox="0 0 240 240"><defs><style>.cls-1{fill:#d6d6d6;}</style></defs><title>collab</title><path class="cls-1" d="M0,75.9c.6-3.05,1.07-6.14,1.84-9.15C12.68,24.29,65.5,9,97.34,39.07c5,4.71,9.7,9.71,14.66,14.69-6.19,6-12.38,12-18.5,18a81.31,81.31,0,0,0-7.6,7.94,28.33,28.33,0,0,0,3.26,38c11.18,10.22,27.78,10.37,38.7.25,2.69-2.49,5.07-5.31,7.71-8.11.84.73,1.37,1.14,1.84,1.61q26.52,26.51,53,53c2.86,2.85,4.1,6.08,2.84,10a8.9,8.9,0,0,1-14.83,3.45c-5.34-5.14-10.52-10.46-15.77-15.71-2.1-2.1-4.18-4.22-6.3-6.29-3.6-3.52-8.44-3.71-11.69-.48s-3.14,8.12.39,11.68Q155.47,177.57,166,188a10,10,0,0,1,3,10c-1.94,7.83-11.33,10.4-17.23,4.66-6.44-6.26-12.66-12.74-19.12-19-1.74-1.68-4-2.85-6-4.32a3.06,3.06,0,0,1-1-1.4c-3.95-11.6-11.95-18.12-24.17-19.4-.31,0-.61-.09-1-.15-1.86-15.74-10.6-24.69-26.49-26.56-.39-2.13-.65-4.37-1.23-6.53-5.16-19.24-29-26.19-43.62-12.64-3.64,3.39-6.92,7.16-10.47,10.86-7.23-6.81-12.38-14.36-15.28-23.27C1.85,95.71,1.09,90.91,0,86.21Z"/><path class="cls-1" d="M240,85.74c-.9,3.94-1.58,7.94-2.74,11.79a49.91,49.91,0,0,1-13.34,21.71c-9.2,8.9-18.58,17.63-27.89,26.42-.27.26-.58.46-1.5,1.17a13.94,13.94,0,0,0-1.57-2.35q-25.07-25.12-50.18-50.2c-4.8-4.8-8.85-4.78-13.7.07-3.7,3.69-7.37,7.42-11.11,11.09-5.42,5.31-13.16,5.45-18.23.37s-5-13.06.5-18.38c16.05-15.64,31.87-31.53,48.32-46.74,15.55-14.37,34.13-18.31,54.16-11.64S234.78,50.16,239.1,70.9c.31,1.5.6,3,.9,4.53Z"/><path class="cls-1" d="M12.54,156.05a10,10,0,0,1,3-7.39c8-8,16-16.06,24-24a10.41,10.41,0,0,1,14.93,0A10.34,10.34,0,0,1,55,139.44Q42.83,152,30.28,164.11c-3.2,3.1-7.25,3.62-11.32,1.73A10.44,10.44,0,0,1,12.54,156.05Z"/><path class="cls-1" d="M110.68,184.62a10.73,10.73,0,0,1-3.08,8.09c-8,8-15.95,16.07-24,24a10.69,10.69,0,0,1-15.1-15.12q11.9-12.12,24-24a9.91,9.91,0,0,1,11.65-2.18A10.28,10.28,0,0,1,110.68,184.62Z"/><path class="cls-1" d="M74.66,148.05c3.35.15,6.64,2.28,8.53,6.26s1.53,8.13-1.57,11.33q-12.3,12.72-25,25c-4.11,4-10.54,3.41-14.57-.72a10.27,10.27,0,0,1-.24-14.57c8.07-8.27,16.3-16.39,24.5-24.53C68.28,148.88,70.75,148,74.66,148.05Z"/><path class="cls-1" d="M110.56,212.65l13.82-15c.73.79,1.72,1.94,2.8,3,4.5,4.55,9.1,9,13.53,13.63a10,10,0,0,1,1.76,11.52,10.19,10.19,0,0,1-15.29,3.54C121.48,224,116.06,218.24,110.56,212.65Z"/></svg>