<svg id="Layer_1" data-name="Layer 1" xmlns="http://www.w3.org/2000/svg" viewBox="0 0 240 240"><defs><style>.cls-1{fill:#d6d6d6;}</style></defs><title>projects</title><path class="cls-1" d="M84.41,210.46a24.11,24.11,0,0,1-11.47-6.61,21.07,21.07,0,0,1-5.81-14.5c-.06-6.8-.23-13.62.06-20.42.18-4.1-1.5-6.81-4.51-9.22a85.65,85.65,0,0,1-28.76-42C18.45,68.89,46.91,17,96.38,4.83,152.24-9,199.36,30.4,206.21,77.56c4.89,33.73-7.11,61.31-33.21,82.9a8.65,8.65,0,0,0-3.51,7.4c.13,6.07-.23,12.16.09,18.21.63,12.06-5.64,21-17.35,24.45,0,2.95,0,6,0,9,0,11-7.36,18.37-18.36,18.42q-15.63.06-31.27,0c-10.81-.06-18.14-7.49-18.19-18.33C84.4,216.57,84.41,213.54,84.41,210.46Zm13.13-158c-6.74-5.75-10-6.55-13.61-2.83a9.86,9.86,0,0,0-2.48,4.88c-.82,4.39,2.78,6.66,5.07,9.14-2,4.67-3.83,9.08-5.79,13.71-1.35,0-3-.1-4.62,0A7.85,7.85,0,0,0,76.43,93c1.61.06,3.23,0,4.28,0,2.05,4.8,3.9,9.15,6,14.08a32.29,32.29,0,0,0-3.43,3,7.45,7.45,0,0,0,0,10.08c2.71,3.14,6.84,3.82,10.14,1.38,1.25-.91,2.05-2.45,2.88-3.5,4.08,1.56,8.2,3.08,12.25,4.75a2.59,2.59,0,0,1,1.06,1.84c.23,1.53.06,3.13.34,4.64a7.53,7.53,0,0,0,8.19,6.21,7.61,7.61,0,0,0,7.21-7.09,24.69,24.69,0,0,0,0-3.44c-.09-1.35.31-2,1.74-2.4a53.81,53.81,0,0,0,7.56-2.85c4.12-1.92,4.08-2,7.41,1s7.85,3,11-.2a7.57,7.57,0,0,0-.07-10.82,31.09,31.09,0,0,0-3-2.58c2.17-5.14,4-9.49,5.91-14.06,1.33,0,3,.06,4.6,0,4.38-.2,7.51-3.24,7.48-7.22a7.33,7.33,0,0,0-7.35-7.63c-1.71-.09-3.42,0-4.7,0l-5.77-13.68c1-1,2.31-2.27,3.44-3.66a7.47,7.47,0,0,0-.44-10.08c-2.74-2.91-7-3.5-10-1.11a18.62,18.62,0,0,0-2.85,3.6l-13.15-5.56a53.72,53.72,0,0,0-.44-5.83,7.68,7.68,0,0,0-8-6.28,7.87,7.87,0,0,0-7.43,7.21,30.62,30.62,0,0,1-.11,3.19,2.34,2.34,0,0,1-1.06,1.6C106.08,49.2,102,50.73,97.54,52.42Zm2.64,159.74c0,3.08-.15,6,.11,8.92a3,3,0,0,0,2.24,1.84c10.56.12,21.12.15,31.69,0a4,4,0,0,0,2.82-2.59,53.42,53.42,0,0,0,.14-8.13Z"/><path class="cls-1" d="M141.11,86a22.79,22.79,0,1,1-22.72-22.93A22.81,22.81,0,0,1,141.11,86Z"/></svg>