<?xml version="1.0" standalone="no"?>
<!DOCTYPE svg PUBLIC "-//W3C//DTD SVG 20010904//EN"
 "http://www.w3.org/TR/2001/REC-SVG-20010904/DTD/svg10.dtd">
<svg version="1.0" xmlns="http://www.w3.org/2000/svg"
 width="512.000000pt" height="512.000000pt" viewBox="0 0 512.000000 512.000000"
 preserveAspectRatio="xMidYMid meet">

<g transform="translate(0.000000,512.000000) scale(0.100000,-0.100000)"
fill="#d6d6d6" stroke="none">
<path d="M2995 4246 c-16 -8 -248 -233 -515 -500 l-484 -485 61 -56 c34 -31
77 -78 95 -106 l32 -50 431 431 c236 236 435 430 440 430 6 0 424 -414 930
-920 738 -738 927 -922 955 -930 75 -20 162 32 176 107 15 78 14 78 -506 598
l-490 490 0 330 c0 294 -2 334 -18 365 -49 98 -180 108 -244 18 -22 -31 -23
-43 -26 -227 l-4 -194 -346 346 c-191 190 -360 351 -375 357 -38 13 -76 12
-112 -4z"/>
<path d="M3000 3674 c-22 -9 -176 -156 -402 -382 l-368 -367 0 -84 c0 -48 -7
-110 -17 -144 -14 -50 -14 -60 -2 -67 35 -22 145 -141 184 -201 88 -131 141
-311 133 -449 -10 -169 -116 -293 -312 -366 l-73 -27 14 -56 c19 -83 31 -248
23 -318 -10 -83 -55 -175 -119 -245 l-53 -58 249 0 c188 0 263 4 306 15 98 25
178 89 225 180 l27 50 5 350 c7 400 8 404 90 478 45 40 103 67 145 67 72 0
179 -77 211 -152 16 -38 19 -83 24 -388 5 -325 6 -348 26 -391 44 -95 131
-168 231 -194 80 -21 819 -22 906 -1 138 32 234 142 258 295 15 101 8 825 -9
866 -17 38 -1546 1570 -1588 1590 -40 19 -69 18 -114 -1z"/>
<path d="M870 3134 c-91 -24 -161 -65 -230 -134 -205 -205 -199 -519 14 -717
l64 -60 -42 -13 c-52 -15 -186 -82 -245 -123 -67 -45 -197 -173 -247 -243
-109 -152 -177 -356 -178 -534 -1 -98 1 -108 27 -153 51 -86 155 -154 319
-207 246 -80 595 -109 903 -75 380 41 632 149 707 303 19 40 20 55 15 156 -7
140 -35 244 -97 371 -112 227 -310 408 -536 491 l-73 26 67 67 c108 108 152
213 152 361 0 323 -312 567 -620 484z"/>
<path d="M1595 3101 c-34 -17 -74 -44 -90 -61 -29 -30 -29 -31 -12 -58 30 -45
73 -144 86 -197 17 -70 15 -210 -4 -285 -18 -70 -54 -147 -91 -197 -13 -17
-24 -36 -24 -40 0 -5 24 -20 53 -35 156 -77 362 -281 433 -430 21 -45 30 -46
133 -18 131 37 219 97 242 168 11 34 6 110 -12 187 -43 180 -205 361 -371 414
-21 7 -38 16 -38 20 0 4 16 23 36 42 147 140 113 386 -67 483 -44 24 -69 31
-134 34 -73 3 -85 1 -140 -27z"/>
</g>
</svg>
