<svg id="Layer_1" data-name="Layer 1" xmlns="http://www.w3.org/2000/svg" viewBox="0 0 240 240"><defs><style>.cls-1{fill:#d6d6d6;}</style></defs><title>industry-projects-01-01</title><path class="cls-1" d="M3.09,140.09V99.91c1.82-4,4.94-5.35,9.19-5.08,3.64.24,7.3,0,11,.08a2,2,0,0,0,2.35-1.74,105,105,0,0,1,3.66-10.54C31,78.53,33,74.57,35,70.39c-3.22-3.19-6.48-6.37-9.71-9.6-3.88-3.88-3.87-7.54,0-11.44q12-12,24-24c3.88-3.88,7.57-3.88,11.44,0,3.27,3.27,6.52,6.56,9.8,9.86a103.23,103.23,0,0,1,23-9.78,2.49,2.49,0,0,0,1.24-1.91c.12-3.73.25-7.47,0-11.18C94.56,8,96,4.91,99.91,3.09h40.18c3.95,1.82,5.35,4.94,5.08,9.19-.24,3.64,0,7.3-.08,11,0,1.36.43,1.84,1.74,2.35,6.64,2.56,13.21,5.32,19.79,8,1,.4,1.84,1,2.87,1.5,3.3-3.34,6.49-6.59,9.71-9.82,3.87-3.88,7.56-3.88,11.45,0q11.94,11.93,23.88,23.88c4.1,4.11,4.1,7.69,0,11.78-3.21,3.22-6.45,6.41-9.69,9.64a103.19,103.19,0,0,1,9.77,23,2.48,2.48,0,0,0,1.92,1.24c3.72.12,7.46.25,11.17,0,4.25-.26,7.38,1.12,9.19,5.08v40.18c-1.81,4-4.94,5.34-9.19,5.08-3.63-.23-7.3,0-10.95-.08-1.36,0-1.91.39-2.36,1.73-1.5,4.54-3.11,9.05-4.92,13.46-1.29,3.13-3,6.09-4.56,9.26,3.24,3.19,6.44,6.33,9.61,9.5,4.09,4.08,4.09,7.67,0,11.78q-11.85,11.87-23.72,23.71c-4.11,4.11-7.66,4.11-11.77,0-3.22-3.21-6.42-6.44-9.65-9.68a102.26,102.26,0,0,1-23,9.77,2.49,2.49,0,0,0-1.24,1.91c-.12,3.73-.25,7.47,0,11.18.26,4.25-1.14,7.37-5.08,9.19H99.91c-4-1.82-5.35-4.94-5.08-9.19.24-3.64,0-7.3.08-10.95,0-1.37-.4-1.91-1.74-2.36-4.53-1.51-9-3.11-13.45-4.93-3.13-1.29-6.09-3-9.26-4.56-3.19,3.24-6.33,6.45-9.5,9.62-4.09,4.1-7.66,4.09-11.77,0q-11.86-11.84-23.71-23.71c-4.11-4.12-4.12-7.67,0-11.77,3.21-3.21,6.45-6.41,9.69-9.64a103,103,0,0,1-9.78-23,2.49,2.49,0,0,0-1.91-1.24c-3.73-.12-7.47-.25-11.18,0C8,145.43,4.91,144,3.09,140.09ZM120,56.07a63.93,63.93,0,1,0,64,63.85A64,64,0,0,0,120,56.07Z"/><path class="cls-1" d="M113.15,85.75c0,4.56,0,8.81,0,13.06,0,4.41,2.89,7.5,6.88,7.48s6.79-3.11,6.82-7.55c0-4.25,0-8.49,0-13H140c2.21,0,4.42,0,6.62,0,4.89,0,7.66,2.75,7.67,7.62,0,16.73-.19,33.48.08,50.21.14,8.21-2.28,10.91-10.86,10.76-16.51-.29-33-.09-49.53-.09-5.63,0-8.19-2.58-8.19-8.23V93.75c0-5.35,2.64-8,8-8C100.1,85.74,106.47,85.75,113.15,85.75Z"/></svg>