<svg id="Layer_1" data-name="Layer 1" xmlns="http://www.w3.org/2000/svg" viewBox="0 0 240 240"><defs><style>.cls-1{fill:#d6d6d6;}</style></defs><title>people</title><path class="cls-1" d="M234.13,170.81a100.3,100.3,0,0,1-28.64,8.63c-6.07.93-12.22,1.41-18.71,2.13,0-1.52,0-2.68,0-3.84.09-7.44,0-14.87-2.33-22-5.28-16-15.9-27-31.68-33l-2.31-.86a42,42,0,0,0,12.65-28.63c9.67,0,19.09-.12,28.52.06a45.93,45.93,0,0,1,10.11,1.31,42.6,42.6,0,0,1,31.92,35.31,12.6,12.6,0,0,0,.47,1.67Z"/><path class="cls-1" d="M178.79,185c0,6.09,0,12.18,0,18.26A2.65,2.65,0,0,1,177,206.1,100,100,0,0,1,149.81,214c-27.52,4.36-54.41,1.09-80.88-6.89-4.22-1.27-4.23-1.26-4.23-5.73,0-10.69-.15-21.38.08-32.07A42.21,42.21,0,0,1,104.93,128c11.7-.52,23.46-.44,35.16.07,16.65.73,32.64,14.45,37,30.77,1.88,7,1.65,14.11,1.68,21.22Z"/><path class="cls-1" d="M80.3,93.39a42,42,0,0,0,12.54,28.33c-27.31,10.46-38.19,30.87-36,59.42-4.24-.38-8.13-.62-12-1.1a235.58,235.58,0,0,1-36.46-7.93c-1.84-.54-2.54-1.3-2.51-3.34.12-10.83,0-21.67.07-32.51C6.12,115.2,20.58,97.78,41,94a30.69,30.69,0,0,1,5.29-.64c10.69-.07,21.38,0,32.07-.06C78.92,93.26,79.5,93.34,80.3,93.39Z"/><path class="cls-1" d="M88.3,91.93a33.45,33.45,0,1,1,33.28,33.48A33.44,33.44,0,0,1,88.3,91.93Z"/><path class="cls-1" d="M63.06,24A33.43,33.43,0,0,1,96.45,57.26a4,4,0,0,1-1.58,3.4A40.82,40.82,0,0,0,81.11,84a4.35,4.35,0,0,1-2,2.6c-11.65,6.21-23.32,6-34.37-1.15s-16-17.7-15.11-30.75C30.83,37.43,45.65,24,63.06,24Z"/><path class="cls-1" d="M177.19,24c17.73.1,32.56,14.13,33.28,31.48.76,18.33-12.29,33.5-30.3,35.21a33.55,33.55,0,0,1-15.48-2.24A2.8,2.8,0,0,1,162.64,86,40.6,40.6,0,0,0,144.9,57.88c-1.23-.85-1.26-1.8-1.17-3A33.46,33.46,0,0,1,177.19,24Z"/></svg>