<svg id="Layer_1" data-name="Layer 1" xmlns="http://www.w3.org/2000/svg" viewBox="0 0 240 240"><defs><style>.cls-1{fill:#d6d6d6;}</style></defs><title>record</title><path class="cls-1" d="M88.57,239.76c-3.49-4.21-7-8.44-10.48-12.64-2.83-3.38-5.63-6.79-8.6-10.05a4.8,4.8,0,0,0-3.07-1.43c-9.21-.24-18.41-.32-27.62-.46-.6,0-1.2-.07-2.14-.13C46,195.31,55.14,175.77,64.47,156a93,93,0,0,0,110.41,0l28,59.49c-6.38,0-12.24,0-18.1,0-4,0-8.05,0-12.07.19a3.62,3.62,0,0,0-2.39.91c-6.47,7.5-12.86,15.07-19.26,22.62a2.55,2.55,0,0,0-.26.61h-.47a8.89,8.89,0,0,0-.33-1.07Q135.27,207.34,120.52,176a11.91,11.91,0,0,0-.91-1.44c-.48.93-.84,1.59-1.17,2.28q-10.78,22.94-21.57,45.9c-2.65,5.65-5.23,11.33-7.84,17Z"/><path class="cls-1" d="M119.62,2a79.08,79.08,0,1,1-79,79A79.21,79.21,0,0,1,119.62,2Zm.06,22.87A56.18,56.18,0,1,0,175.87,81,56.43,56.43,0,0,0,119.68,24.87Z"/><path class="cls-1" d="M119.61,123.3A42.3,42.3,0,0,1,77.43,81c.06-23.23,19.2-42.33,42.32-42.21a42.25,42.25,0,1,1-.14,84.49Z"/></svg>