<svg id="Layer_1" data-name="Layer 1" xmlns="http://www.w3.org/2000/svg" viewBox="0 0 240 240"><defs><style>.cls-1{fill:#d6d6d6;}</style></defs><title>startups-01-01</title><path class="cls-1" d="M227.54,9c2.6,1.21,3.5,3.25,3.5,6.09,0,24.63-6.43,47.65-17.24,69.57a172.71,172.71,0,0,1-38.64,51.8c-1.28,1.17-1.25,2.47-1.33,3.9q-2.29,44.19-32.75,76.3c-.35.37-.7.74-1.08,1.07a4.83,4.83,0,0,1-8.32-3.09c-1.6-11.43-3.26-22.86-5-34.79-1.56,1.39-2.87,2.57-4.19,3.72-2.85,2.51-5.08,2.49-7.75-.17q-29.13-29.12-58.25-58.26c-2.57-2.57-2.57-4.82-.15-7.58,1.17-1.33,2.35-2.65,3.78-4.26L40.7,110.47c-5.29-.75-10.58-1.48-15.87-2.24a4.56,4.56,0,0,1-4-3.19,4.74,4.74,0,0,1,1.47-5.1A117.05,117.05,0,0,1,75.54,69.73a113.26,113.26,0,0,1,25.25-3.66,4,4,0,0,0,2.58-1.17c20.06-21.71,44.21-37.18,72-47.06a148.82,148.82,0,0,1,40.12-8.51A10.66,10.66,0,0,0,217.13,9ZM190.61,72.46a23.14,23.14,0,1,0-23.14,23.2A23.24,23.24,0,0,0,190.61,72.46Z"/><path class="cls-1" d="M9,225c1.89-5.65,3.72-11.33,5.69-17,4.33-12.38,8.77-24.71,15-36.34a28.42,28.42,0,0,1,53.27,13.52c0,10.84-4.39,19.7-14.2,24.76a275.17,275.17,0,0,1-26.47,11.7c-8.52,3.32-17.31,5.93-26,8.79C12.42,231.68,11,231,9,227.56Z"/></svg>